<svg width="24" height="24" viewBox="0 0 24 24" fill="none" xmlns="http://www.w3.org/2000/svg">
<g clip-path="url(#clip0_1554_102971)">
<path d="M4.86523 19.5442L5.94374 15.6235C5.27837 14.4761 4.92847 13.1743 4.92889 11.841C4.93063 7.66933 8.34079 4.27539 12.5308 4.27539C14.5644 4.2763 16.4731 5.06425 17.9082 6.49435C19.3435 7.92443 20.1335 9.82532 20.1327 11.8469C20.131 16.0187 16.7206 19.4129 12.5311 19.4129C12.5308 19.4129 12.5313 19.4129 12.5311 19.4129H12.5277C11.2555 19.4125 10.0054 19.0946 8.89516 18.4921L4.86523 19.5442Z" fill="url(#paint0_linear_1554_102971)"/>
<path fill-rule="evenodd" clip-rule="evenodd" d="M10.5645 8.56182C10.4171 8.23559 10.2619 8.22906 10.1217 8.22335C10.007 8.21845 9.87572 8.21875 9.74463 8.21875C9.61344 8.21875 9.40026 8.26784 9.21999 8.46386C9.0396 8.65988 8.53125 9.13375 8.53125 10.0975C8.53125 11.0614 9.23638 11.9927 9.33467 12.1235C9.43306 12.2541 10.6958 14.2951 12.6957 15.0803C14.3578 15.7328 14.6961 15.603 15.0568 15.5704C15.4176 15.5377 16.2209 15.0966 16.3849 14.6392C16.5489 14.1818 16.5489 13.7898 16.4997 13.7079C16.4505 13.6262 16.3193 13.5772 16.1225 13.4793C15.9257 13.3813 14.9584 12.9074 14.778 12.8421C14.5977 12.7767 14.4665 12.7441 14.3353 12.9402C14.2041 13.1361 13.8272 13.5772 13.7124 13.7079C13.5977 13.8388 13.4829 13.8551 13.2861 13.7571C13.0893 13.6589 12.4556 13.4522 11.7038 12.7849C11.1189 12.2657 10.724 11.6245 10.6092 11.4284C10.4944 11.2325 10.5969 11.1264 10.6956 11.0287C10.784 10.9409 10.8924 10.8 10.9908 10.6856C11.089 10.5712 11.1218 10.4896 11.1874 10.359C11.253 10.2282 11.2202 10.1138 11.171 10.0158C11.1218 9.91789 10.7394 8.94915 10.5645 8.56182Z" fill="white"/>
<path d="M18.1048 6.3004C16.6179 4.81909 14.6409 4.00288 12.5345 4.00195C8.19394 4.00195 4.6616 7.51762 4.65986 11.8389C4.65934 13.2202 5.02186 14.5686 5.71089 15.7571L4.59375 19.8183L8.76818 18.7285C9.91833 19.353 11.2133 19.6821 12.5311 19.6826H12.5345H12.5345C16.8744 19.6826 20.4072 16.1663 20.4091 11.8452C20.4098 9.75096 19.5914 7.78181 18.1048 6.3004ZM12.5345 18.3589H12.5319C11.3573 18.3583 10.2054 18.0443 9.2007 17.4508L8.96158 17.3096L6.48439 17.9563L7.14576 15.5525L6.98997 15.3061C6.33476 14.2689 5.98885 13.0702 5.98936 11.8394C5.9908 8.24772 8.92674 5.32572 12.537 5.32572C14.2853 5.32644 15.9284 6.00489 17.1642 7.23611C18.3999 8.46732 19.08 10.104 19.0795 11.8447C19.0779 15.4365 16.1419 18.3589 12.5345 18.3589Z" fill="#F3F3F3"/>
</g>
<defs>
<linearGradient id="paint0_linear_1554_102971" x1="12.499" y1="19.5442" x2="12.499" y2="4.27542" gradientUnits="userSpaceOnUse">
<stop stop-color="#20B038"/>
<stop offset="1" stop-color="#60D66A"/>
</linearGradient>
<clipPath id="clip0_1554_102971">
<rect width="16" height="16" fill="white" transform="translate(4.5 4)"/>
</clipPath>
</defs>
</svg>
